<svg version="1.2" xmlns="http://www.w3.org/2000/svg" viewBox="0 0 39 35" width="39" height="35">
	<title>logo-svg</title>
	<style>
		.s0 { fill: #ff6e00 }
	</style>
	<path id="Shape 5" fill-rule="evenodd" class="s0" d="m37 6.6v13.8q-1.1 0.6-2.2 1.1-3.4 1.5-7.1 1.5-3.8 0-7.2-1.5-3.3-1.5-5.8-3.9-2.4-2.5-3.9-5.9-1.5-3.4-1.5-7.2 0-2.3 0.6-4.5h20.5q2.7 0 4.7 1.9 1.9 2 1.9 4.7zm-1.9 26.5q-2 1.9-4.7 1.9h-21.8q-2.7 0-4.7-1.9-1.9-2-1.9-4.7v-21.8q0-0.4 0-0.7 0.3 4.5 2 8.7 2.1 4.7 5.5 8.2 3.4 3.4 8.2 5.5 4.8 2 10 2 4.8 0 9.3-1.7 0 2.6-1.9 4.5zm-4.9-22.6l2.6-1.4q0.5-0.2 0.6-0.7 0.1-0.5-0.1-0.9l-0.6-1q-0.3-0.4-0.8-0.5-0.5-0.2-0.9 0.1l-2.6 1.4v-2.8q0-0.5-0.4-0.9-0.4-0.3-0.9-0.3h-1.2q-0.5 0-0.9 0.3-0.4 0.4-0.4 0.9l0.1 3-2.7-1.6q-0.4-0.3-0.9-0.1-0.5 0.1-0.8 0.5l-0.6 1q-0.2 0.4-0.1 0.9 0.1 0.5 0.6 0.7l2.6 1.4-2.6 1.4q-0.5 0.2-0.6 0.7-0.1 0.5 0.1 0.9l0.6 1q0.3 0.4 0.8 0.5 0.5 0.2 0.9-0.1l2.6-1.4v2.8q0 0.5 0.4 0.9 0.4 0.3 0.9 0.3h1.2q0.5 0 0.9-0.3 0.4-0.4 0.4-0.9v-2.8l2.6 1.4q0.4 0.3 0.9 0.1 0.5-0.1 0.8-0.5l0.6-1q0.2-0.4 0.1-0.9-0.1-0.5-0.6-0.7z"/>
</svg>